<svg width="10" height="16" viewBox="0 0 10 16" fill="none" xmlns="http://www.w3.org/2000/svg">
<path d="M5.83325 6.50008H9.58325L9.16659 8.16675H5.83325V15.6667H4.16659V8.16675H0.833252V6.50008H4.16659V4.94008C4.16659 3.45425 4.32159 2.91508 4.61159 2.37175C4.89576 1.83492 5.33476 1.39592 5.87159 1.11175C6.41492 0.821748 6.95409 0.666748 8.43992 0.666748C8.87492 0.666748 9.25659 0.708415 9.58325 0.791748V2.33341H8.43992C7.33659 2.33341 7.00075 2.39841 6.65825 2.58175C6.40492 2.71675 6.21659 2.90508 6.08159 3.15841C5.89825 3.50091 5.83325 3.83675 5.83325 4.94008V6.50008Z" fill="#CCD2E9"/>
</svg>
