<svg width="16" height="16" viewBox="0 0 16 16" fill="none" xmlns="http://www.w3.org/2000/svg">
<path d="M8.00008 5.95841C8.76425 5.17758 9.75925 4.66675 10.9167 4.66675C12.1323 4.66675 13.2981 5.14963 14.1577 6.00917C15.0172 6.86872 15.5001 8.03451 15.5001 9.25008V15.5001H13.8334V9.25008C13.8334 8.47653 13.5261 7.73467 12.9791 7.18769C12.4322 6.64071 11.6903 6.33341 10.9167 6.33341C10.1432 6.33341 9.40133 6.64071 8.85435 7.18769C8.30737 7.73467 8.00008 8.47653 8.00008 9.25008V15.5001H6.33342V5.08341H8.00008V5.95841ZM2.16675 3.41675C1.83523 3.41675 1.51729 3.28505 1.28286 3.05063C1.04844 2.81621 0.916748 2.49827 0.916748 2.16675C0.916748 1.83523 1.04844 1.51729 1.28286 1.28286C1.51729 1.04844 1.83523 0.916748 2.16675 0.916748C2.49827 0.916748 2.81621 1.04844 3.05063 1.28286C3.28505 1.51729 3.41675 1.83523 3.41675 2.16675C3.41675 2.49827 3.28505 2.81621 3.05063 3.05063C2.81621 3.28505 2.49827 3.41675 2.16675 3.41675ZM1.33341 5.08341H3.00008V15.5001H1.33341V5.08341Z" fill="#CCD2E9"/>
</svg>
