<svg width="18" height="18" viewBox="0 0 18 18" fill="none" xmlns="http://www.w3.org/2000/svg">
<path d="M9.00008 6.50008C8.33704 6.50008 7.70116 6.76347 7.23231 7.23231C6.76347 7.70116 6.50008 8.33704 6.50008 9.00008C6.50008 9.66312 6.76347 10.299 7.23231 10.7678C7.70116 11.2367 8.33704 11.5001 9.00008 11.5001C9.66312 11.5001 10.299 11.2367 10.7678 10.7678C11.2367 10.299 11.5001 9.66312 11.5001 9.00008C11.5001 8.33704 11.2367 7.70116 10.7678 7.23231C10.299 6.76347 9.66312 6.50008 9.00008 6.50008ZM9.00008 4.83342C10.1052 4.83342 11.165 5.2724 11.9464 6.0538C12.7278 6.83521 13.1667 7.89501 13.1667 9.00008C13.1667 10.1052 12.7278 11.165 11.9464 11.9464C11.165 12.7278 10.1052 13.1667 9.00008 13.1667C7.89501 13.1667 6.83521 12.7278 6.0538 11.9464C5.2724 11.165 4.83342 10.1052 4.83342 9.00008C4.83342 7.89501 5.2724 6.83521 6.0538 6.0538C6.83521 5.2724 7.89501 4.83342 9.00008 4.83342ZM14.4167 4.62508C14.4167 4.90135 14.307 5.1663 14.1117 5.36165C13.9163 5.557 13.6513 5.66675 13.3751 5.66675C13.0988 5.66675 12.8339 5.557 12.6385 5.36165C12.4432 5.1663 12.3334 4.90135 12.3334 4.62508C12.3334 4.34881 12.4432 4.08386 12.6385 3.88851C12.8339 3.69316 13.0988 3.58341 13.3751 3.58341C13.6513 3.58341 13.9163 3.69316 14.1117 3.88851C14.307 4.08386 14.4167 4.34881 14.4167 4.62508ZM9.00008 2.33341C6.93842 2.33341 6.60175 2.33925 5.64258 2.38175C4.98925 2.41258 4.55091 2.50008 4.14425 2.65841C3.78258 2.79841 3.52175 2.96591 3.24425 3.24425C2.98342 3.49625 2.78288 3.8039 2.65758 4.14425C2.49925 4.55258 2.41175 4.99008 2.38175 5.64258C2.33841 6.56258 2.33341 6.88425 2.33341 9.00008C2.33341 11.0617 2.33925 11.3984 2.38175 12.3576C2.41258 13.0101 2.50008 13.4492 2.65758 13.8551C2.79925 14.2176 2.96591 14.4784 3.24258 14.7551C3.52341 15.0351 3.78425 15.2026 4.14258 15.3409C4.55425 15.5001 4.99258 15.5884 5.64258 15.6184C6.56258 15.6617 6.88425 15.6667 9.00008 15.6667C11.0617 15.6667 11.3984 15.6609 12.3576 15.6184C13.0092 15.5876 13.4484 15.5001 13.8551 15.3426C14.2159 15.2017 14.4784 15.0342 14.7551 14.7576C15.0359 14.4767 15.2034 14.2159 15.3417 13.8576C15.5001 13.4467 15.5884 13.0076 15.6184 12.3576C15.6617 11.4376 15.6667 11.1159 15.6667 9.00008C15.6667 6.93842 15.6609 6.60175 15.6184 5.64258C15.5876 4.99092 15.5001 4.55091 15.3417 4.14425C15.2162 3.80425 15.016 3.49672 14.7559 3.24425C14.504 2.98329 14.1963 2.78272 13.8559 2.65758C13.4476 2.49925 13.0092 2.41175 12.3576 2.38175C11.4376 2.33841 11.1159 2.33341 9.00008 2.33341ZM9.00008 0.666748C11.2642 0.666748 11.5467 0.675081 12.4351 0.716748C13.3226 0.758415 13.9267 0.897581 14.4584 1.10425C15.0084 1.31591 15.4717 1.60258 15.9351 2.06508C16.3588 2.48166 16.6867 2.98557 16.8959 3.54175C17.1017 4.07258 17.2417 4.67758 17.2834 5.56508C17.3226 6.45341 17.3334 6.73592 17.3334 9.00008C17.3334 11.2642 17.3251 11.5467 17.2834 12.4351C17.2417 13.3226 17.1017 13.9267 16.8959 14.4584C16.6873 15.0149 16.3594 15.5189 15.9351 15.9351C15.5184 16.3587 15.0145 16.6865 14.4584 16.8959C13.9276 17.1017 13.3226 17.2417 12.4351 17.2834C11.5467 17.3226 11.2642 17.3334 9.00008 17.3334C6.73592 17.3334 6.45341 17.3251 5.56508 17.2834C4.67758 17.2417 4.07341 17.1017 3.54175 16.8959C2.98535 16.6871 2.48135 16.3592 2.06508 15.9351C1.64125 15.5186 1.31336 15.0146 1.10425 14.4584C0.897581 13.9276 0.758415 13.3226 0.716748 12.4351C0.677581 11.5467 0.666748 11.2642 0.666748 9.00008C0.666748 6.73592 0.675081 6.45341 0.716748 5.56508C0.758415 4.67675 0.897581 4.07341 1.10425 3.54175C1.31278 2.98523 1.64075 2.48118 2.06508 2.06508C2.48147 1.64111 2.98544 1.31319 3.54175 1.10425C4.07341 0.897581 4.67675 0.758415 5.56508 0.716748C6.45341 0.677581 6.73592 0.666748 9.00008 0.666748Z" fill="#CCD2E9"/>
</svg>
