<svg width="28" height="24" viewBox="0 0 28 24" fill="none" xmlns="http://www.w3.org/2000/svg">
<path d="M26.0001 0C26.3537 0 26.6928 0.140476 26.9429 0.390524C27.1929 0.640573 27.3334 0.979711 27.3334 1.33333V8.66667C26.4494 8.66667 25.6015 9.01786 24.9764 9.64298C24.3513 10.2681 24.0001 11.1159 24.0001 12C24.0001 12.8841 24.3513 13.7319 24.9764 14.357C25.6015 14.9821 26.4494 15.3333 27.3334 15.3333V22.6667C27.3334 23.0203 27.1929 23.3594 26.9429 23.6095C26.6928 23.8595 26.3537 24 26.0001 24H2.00008C1.64646 24 1.30732 23.8595 1.05727 23.6095C0.807224 23.3594 0.666748 23.0203 0.666748 22.6667V15.3333C1.5508 15.3333 2.39865 14.9821 3.02377 14.357C3.64889 13.7319 4.00008 12.8841 4.00008 12C4.00008 11.1159 3.64889 10.2681 3.02377 9.64298C2.39865 9.01786 1.5508 8.66667 0.666748 8.66667V1.33333C0.666748 0.979711 0.807224 0.640573 1.05727 0.390524C1.30732 0.140476 1.64646 0 2.00008 0H26.0001ZM19.3334 8H8.66675V16H19.3334V8Z" fill="#0059F7"/>
</svg>
